<svg xmlns="http://www.w3.org/2000/svg" width="510" height="473" viewBox="0 0 510 473" version="1.1"><path d="M 227.638 20.500 C 226.676 23.009, 227.776 24.334, 234.268 28.483 C 240.610 32.537, 261 52.091, 261 54.120 C 261 54.742, 260.228 54.969, 259.250 54.634 C 232.386 45.433, 227.956 44.584, 207 44.623 C 183.087 44.667, 166.051 48.583, 144 59.105 C 128.328 66.583, 109 80.010, 109 83.418 C 109 86.805, 111.692 87.277, 120.736 85.475 C 131.330 83.365, 150.444 83.118, 160.981 84.955 L 168.462 86.259 161.981 87.993 C 114.550 100.683, 80.175 138.308, 68.359 190.468 C 66.006 200.858, 65.967 201.503, 67.629 202.718 C 68.593 203.423, 69.747 204, 70.192 204 C 70.638 204, 73.784 201.059, 77.184 197.464 C 85.617 188.547, 95.351 180.745, 104.661 175.440 C 108.946 172.998, 112.838 171, 113.310 171 C 113.782 171, 112.850 172.688, 111.239 174.750 C 99.031 190.381, 88.454 214.383, 84.441 235.565 C 82.346 246.623, 82.066 267.823, 83.881 278 C 85.607 287.681, 90.613 303.434, 92.447 304.956 C 95.420 307.424, 97.502 304.645, 98.896 296.344 C 100.852 284.703, 103.591 276.707, 109.772 264.588 C 114.892 254.548, 126.641 237.308, 127.665 238.332 C 127.906 238.572, 127.662 243.884, 127.124 250.135 C 123.838 288.296, 135.915 326.463, 160.384 355.247 C 171.231 368.006, 171.963 367.379, 172.420 344.921 C 172.955 318.622, 177.001 298.487, 186.672 274 C 189.170 267.675, 191.503 262.190, 191.857 261.811 C 192.211 261.432, 192.527 266.607, 192.559 273.311 C 192.626 286.984, 193.970 295.477, 198.076 308.154 C 203.418 324.651, 210.952 337.259, 226.965 356.500 C 244.347 377.385, 254.207 394.332, 259.395 412.236 C 262.253 422.096, 264.081 437.161, 263.279 444.242 C 262.705 449.308, 263.962 452, 266.902 452 C 269.197 452, 280.672 440.840, 286.439 433 C 300.500 413.882, 307.397 391.201, 306.806 366.023 C 306.638 358.858, 306.775 352.997, 307.111 352.998 C 307.448 352.999, 309.190 356.488, 310.984 360.750 C 314.606 369.358, 317.967 383.979, 317.987 391.215 C 318.003 396.972, 320.492 399.111, 323.828 396.235 C 328.814 391.939, 334 370.255, 334 353.702 C 334 339.900, 332.032 331.362, 325.625 317.365 C 320.552 306.283, 318.737 299.563, 319.622 295.138 C 320.694 289.778, 325.773 286, 331.905 286 C 336.240 286, 347.012 291.918, 352.298 297.203 C 354.936 299.841, 357.770 302, 358.594 302 C 359.419 302, 360.860 303.399, 361.797 305.110 C 365.454 311.786, 366.525 312.613, 369.874 311.352 C 372.766 310.262, 373.025 310.377, 374.927 313.602 C 377.075 317.241, 379.921 318.005, 382 315.500 C 383.733 313.412, 384.503 313.614, 385.818 316.500 C 387.493 320.176, 389.805 319.583, 395.063 314.129 C 404.829 303.997, 410.761 289.052, 409.667 277.336 C 409.216 272.510, 409.423 270.894, 410.619 269.902 C 412.796 268.094, 415.314 262.742, 418.424 253.309 C 419.910 248.804, 422.455 243.444, 424.081 241.398 C 431.288 232.330, 437.320 218.008, 436.254 212.500 C 435.505 208.631, 423.135 196.542, 400.315 177.379 C 390.864 169.441, 382.234 161.497, 381.139 159.724 C 380.043 157.951, 378.369 153.350, 377.417 149.500 C 375.306 140.953, 373.763 139.332, 354.424 125.329 C 335.788 111.835, 336.613 112.918, 339.038 105.125 C 342.942 92.582, 341.379 80.650, 333.804 65.169 C 329.658 56.697, 327.222 53.234, 320.261 45.919 C 315.592 41.014, 310.979 37, 310.009 37 C 306.361 37, 305.783 39.340, 307.443 47.379 C 308.299 51.524, 309 55.446, 309 56.095 C 309 56.743, 306.863 55.293, 304.250 52.872 C 287.617 37.458, 269.306 27.523, 247.143 21.888 C 234.352 18.635, 228.513 18.220, 227.638 20.500 M 258.181 38.741 C 265.223 45.983, 271.930 55.212, 276.829 64.401 C 280.254 70.823, 276.913 74.192, 271.154 70.126 C 266.517 66.850, 254.330 61.097, 246.375 58.426 C 234.302 54.373, 222.975 52.703, 207.500 52.692 C 184.531 52.677, 164.530 57.503, 144.126 67.984 C 128.438 76.042, 128.454 75.931, 143 75.970 C 159.295 76.013, 175.528 78.858, 189.673 84.151 C 194.565 85.981, 195.084 86.455, 194.807 88.843 C 194.506 91.449, 194.299 91.521, 184 92.605 C 165.853 94.516, 154.752 97.581, 141 104.478 C 122.245 113.884, 107.959 126.711, 95.310 145.500 C 88.605 155.461, 80.254 173.515, 78.507 181.827 L 77.807 185.154 84.654 179.627 C 97.767 169.040, 121.202 156.882, 129 156.618 C 131.966 156.518, 132.551 156.863, 132.836 158.878 C 133.079 160.595, 131.939 162.541, 128.735 165.878 C 123.628 171.197, 114.596 182.629, 110.807 188.568 C 99.352 206.526, 91.570 230.839, 90.344 252.500 C 89.746 263.063, 91.147 279.001, 92.925 281.879 C 93.404 282.654, 94.735 280.171, 96.442 275.313 C 102.415 258.323, 112.851 241.944, 126.978 227.387 C 132.238 221.967, 134.838 219.978, 136.375 220.197 C 139.076 220.582, 139.099 223.771, 136.498 237.500 C 134.074 250.293, 134.039 272.495, 136.422 286 C 139.750 304.866, 149.125 327.132, 159.789 341.500 L 163.500 346.500 164.287 339 C 166.124 321.507, 168.180 308.590, 170.671 298.899 L 173.327 288.566 171.005 277.033 C 167.881 261.525, 167.119 236.392, 169.377 223.364 C 174.916 191.403, 193.101 162.044, 213.750 151.725 C 216.088 150.557, 218 149.226, 218 148.767 C 218 148.309, 216.915 145.792, 215.588 143.174 C 211.306 134.724, 209.687 127.373, 210.274 119.050 C 211.042 108.164, 216.188 95.748, 221.231 92.611 C 222.561 91.783, 223.362 91.933, 224.686 93.257 C 226.318 94.889, 226.198 95.415, 222.455 103.098 C 218.642 110.924, 218.500 111.580, 218.500 121.358 C 218.500 132.239, 220.043 137.162, 226.344 146.390 C 227.805 148.529, 229 150.910, 229 151.681 C 229 152.453, 226.188 154.356, 222.750 155.910 C 213.923 159.902, 205.045 166.787, 198.514 174.704 C 191.366 183.370, 182.834 200.619, 179.326 213.500 C 176.750 222.958, 176.604 224.665, 176.629 245 C 176.644 257.131, 177.106 267.807, 177.690 269.500 L 178.724 272.500 180.028 269.500 C 187.662 251.925, 196.854 235.026, 200.362 232.114 C 202.090 230.681, 204.745 231.621, 205.476 233.926 C 205.780 234.883, 205.323 237.654, 204.461 240.083 C 202.200 246.453, 200.012 262.140, 200.010 272 C 200.004 293.402, 206.825 315.249, 219.365 334 C 221.020 336.475, 227.144 344.350, 232.973 351.500 C 246.628 368.250, 248.153 370.348, 254.622 381.296 C 263.587 396.468, 269.496 414.329, 270.816 430.246 L 271.500 438.500 277 431.841 C 284.496 422.765, 288.706 415.523, 292.758 404.737 C 297.988 390.813, 299.313 381.994, 298.731 365 C 298.357 354.107, 297.669 348.510, 295.963 342.500 C 294.715 338.100, 293.650 332.925, 293.597 331 C 293.513 327.979, 293.843 327.460, 296.003 327.207 C 298.799 326.881, 302.282 330.554, 310.030 342 C 314.838 349.104, 321.452 363.560, 322.535 369.334 C 324.100 377.675, 326.137 368.062, 326.086 352.574 C 326.049 341.264, 323.656 331.693, 317.646 318.814 C 309.858 302.129, 309.607 291.925, 316.781 283.744 C 317.628 282.778, 318.136 281.849, 317.911 281.679 C 317.685 281.509, 313.675 280.140, 309 278.636 C 284.755 270.841, 267.727 251.699, 262.625 226.502 L 261.411 220.505 257.081 226.880 C 247.884 240.424, 242.517 255.567, 240.684 273.147 C 239.510 284.403, 239.477 284.503, 236.796 284.812 C 234.377 285.091, 233.755 284.458, 230.903 278.812 C 216.078 249.463, 218.340 219.139, 237.489 190.517 C 244.233 180.438, 254.221 169.507, 262.097 163.586 C 267.163 159.778, 268.498 159.196, 270.145 160.078 C 273.599 161.926, 271.912 165.224, 264 172.090 C 249.265 184.877, 237.206 202.844, 231.844 220 C 228.739 229.935, 228.510 249.247, 231.387 258.500 L 233.253 264.500 235.568 255.874 C 238.539 244.806, 241.705 237.066, 246.905 228.162 C 251.531 220.243, 262.207 206.518, 264.396 205.678 C 267.411 204.521, 268.752 207.352, 269.384 216.206 C 270.615 233.460, 277.066 247.290, 289.062 258.397 C 296.663 265.434, 305.520 269.634, 323.926 274.927 C 340.236 279.618, 350.403 284.490, 355.382 290.002 C 358.049 292.953, 359.328 293.660, 361.318 293.279 C 363.479 292.866, 364.165 293.402, 365.948 296.897 C 368.317 301.542, 368.603 301.669, 371.266 299.259 C 373.108 297.592, 373.289 297.634, 375.542 300.254 C 376.836 301.758, 378.369 303.779, 378.950 304.744 C 379.917 306.352, 380.200 306.267, 382.291 303.750 C 385.322 300.101, 387.778 300.242, 389.426 304.161 L 390.755 307.322 393.989 302.911 C 399.665 295.172, 401.266 290.406, 401.771 279.750 C 402.087 273.070, 401.888 270, 401.137 270 C 400.535 270, 396.574 271.164, 392.335 272.587 C 386.077 274.688, 381.532 275.350, 368.164 276.107 C 350.961 277.082, 348.554 276.886, 347.615 274.439 C 346.830 272.394, 350.472 269, 353.452 269 C 355.734 269, 355.574 268.669, 351.160 264.250 C 336.982 250.058, 338.359 229.985, 354.533 215.077 C 359.178 210.795, 360.822 210.222, 362.800 212.200 C 364.878 214.278, 364.147 216.059, 358.838 221.860 C 347.405 234.352, 346.134 247.191, 355.300 257.604 C 360.366 263.359, 369.574 267.998, 375.932 267.999 C 382.223 268, 394.574 264.450, 401.551 260.636 C 409.283 256.408, 412.312 251.174, 411.756 243 C 411.225 235.194, 409.370 232.123, 402.911 228.358 C 392.743 222.429, 386.484 213.313, 390.544 210.344 C 393.219 208.388, 393.467 208.520, 397.381 213.967 C 401.819 220.145, 407.689 223.399, 414.500 223.457 C 419.168 223.497, 419.521 223.678, 419.810 226.184 C 419.981 227.660, 419.420 230.222, 418.564 231.877 C 416.748 235.389, 418.286 237.314, 420.539 234.350 C 422.824 231.345, 425.291 224.202, 424.636 222.493 C 423.528 219.607, 417.439 217.805, 412.914 219.023 C 408.239 220.282, 405.407 219.629, 403.980 216.962 C 403.108 215.333, 403.533 214.769, 406.941 213.030 C 411.646 210.630, 414.608 210.520, 421.953 212.475 C 424.953 213.273, 427.559 213.774, 427.745 213.589 C 428.616 212.717, 421.333 205.711, 405.634 192.321 C 380.887 171.215, 374.374 164.615, 371.980 158.218 C 370.891 155.307, 370 152.103, 370 151.097 C 370 147.911, 366.124 144.146, 351.623 133.248 C 343.855 127.411, 335.166 120.749, 332.314 118.444 C 325.851 113.222, 314.261 109.778, 302.862 109.692 C 294.942 109.632, 295.219 109.541, 281.500 116.774 C 279.300 117.934, 275.400 119.607, 272.833 120.492 C 268.536 121.974, 258.343 129.677, 259.348 130.682 C 259.588 130.921, 261.520 130.381, 263.642 129.482 C 268.730 127.326, 280.955 126.370, 283.821 127.904 C 286.221 129.189, 286.701 132.201, 284.750 133.744 C 284.063 134.287, 280.092 134.976, 275.928 135.275 C 268.566 135.804, 260.773 138.648, 252.907 143.677 C 249.733 145.706, 247 144.840, 247 141.806 C 247 140.565, 248.230 136.388, 249.732 132.525 C 253.105 123.853, 259.709 116.896, 267.038 114.293 C 269.767 113.324, 272 112.135, 272 111.652 C 272 111.169, 268.714 107.489, 264.699 103.473 C 258.524 97.298, 256.495 95.909, 251.550 94.471 C 243.376 92.095, 239.926 93.736, 236.260 101.743 C 230.988 113.259, 232.172 127.196, 239.576 140.784 C 241.459 144.241, 243 148.123, 243 149.412 C 243 152.289, 240.826 154.254, 238.590 153.396 C 236.063 152.426, 228.164 135.285, 226.386 126.913 C 221.497 103.887, 233.955 82.734, 250.547 85.888 C 259.212 87.535, 268.847 94.373, 276.637 104.404 L 279.669 108.309 285.104 105.650 C 293.106 101.735, 300.660 100.398, 307.957 101.604 C 311.281 102.154, 314 102.292, 314 101.912 C 314 101.531, 311.975 98.469, 309.500 95.107 C 304.638 88.503, 304.176 86.929, 306.524 84.980 C 308.957 82.961, 311.134 84.710, 319.803 95.643 C 324.226 101.222, 328.331 106.086, 328.924 106.453 C 330.559 107.463, 332.184 102.353, 332.726 94.500 C 333.511 83.115, 329.347 70.714, 320.688 58.648 L 317.207 53.797 316.853 62.936 C 316.593 69.681, 316.107 72.322, 315 73.022 C 312.679 74.488, 312.016 74.236, 309.160 70.803 C 302.613 62.935, 293.984 54.406, 288 49.889 C 280.674 44.359, 264.718 35.827, 256.259 32.917 L 250.636 30.983 258.181 38.741 M 417.738 71.982 C 415.295 80.318, 411.941 83.730, 403.503 86.464 L 396.597 88.702 400.502 89.434 C 405.373 90.348, 410.898 93.122, 413.435 95.927 C 414.499 97.104, 416.339 100.946, 417.524 104.466 L 419.677 110.865 421.327 105.683 C 424.647 95.256, 427.747 92.303, 438.180 89.633 L 443.400 88.298 439.450 87.570 C 429.014 85.647, 424.077 81.292, 421.123 71.401 L 419.500 65.969 417.738 71.982 M 349.912 138.870 C 347.907 140.493, 347.828 140.950, 348.958 144.373 C 350.543 149.174, 349.608 153.483, 347.208 152.439 C 343.158 150.676, 338.295 150.946, 327.972 153.507 C 321.922 155.008, 316.724 156.637, 316.422 157.127 C 315.641 158.390, 316.932 162, 318.164 162 C 318.730 162, 321.214 163.779, 323.684 165.953 C 329.422 171.004, 335.627 174, 340.349 174 C 344.883 174, 352.891 177.872, 359.179 183.106 C 364.119 187.217, 365.844 187.756, 367.800 185.800 C 369.938 183.662, 369.110 182.102, 362.541 175.889 C 358.395 171.968, 355.488 168.226, 354.425 165.444 C 352.834 161.277, 352.852 160.937, 354.885 156.738 C 356.215 153.990, 357 150.420, 357 147.119 C 357 138.827, 354.113 135.468, 349.912 138.870 M 335 159.377 L 328.500 160.510 332 163.148 C 333.925 164.599, 337.300 166.008, 339.500 166.280 C 341.700 166.551, 344.484 167.094, 345.687 167.487 C 347.799 168.176, 347.836 168.068, 346.755 164.350 C 345.445 159.840, 344.194 157.953, 342.628 158.122 C 342.007 158.189, 338.575 158.754, 335 159.377" stroke="none" fill="#dfbb75" fill-rule="evenodd"/><path d="M -0 236.502 L -0 473.004 255.250 472.752 L 510.500 472.500 510.752 236.250 L 511.004 -0 255.502 -0 L 0 0 -0 236.502 M 0.492 237 C 0.492 367.075, 0.608 420.287, 0.750 355.250 C 0.892 290.212, 0.892 183.787, 0.750 118.750 C 0.608 53.712, 0.492 106.925, 0.492 237 M 227.638 20.500 C 226.676 23.009, 227.776 24.334, 234.268 28.483 C 240.610 32.537, 261 52.091, 261 54.120 C 261 54.742, 260.228 54.969, 259.250 54.634 C 232.386 45.433, 227.956 44.584, 207 44.623 C 183.087 44.667, 166.051 48.583, 144 59.105 C 128.328 66.583, 109 80.010, 109 83.418 C 109 86.805, 111.692 87.277, 120.736 85.475 C 131.330 83.365, 150.444 83.118, 160.981 84.955 L 168.462 86.259 161.981 87.993 C 114.550 100.683, 80.175 138.308, 68.359 190.468 C 66.006 200.858, 65.967 201.503, 67.629 202.718 C 68.593 203.423, 69.747 204, 70.192 204 C 70.638 204, 73.784 201.059, 77.184 197.464 C 85.617 188.547, 95.351 180.745, 104.661 175.440 C 108.946 172.998, 112.838 171, 113.310 171 C 113.782 171, 112.850 172.688, 111.239 174.750 C 99.031 190.381, 88.454 214.383, 84.441 235.565 C 82.346 246.623, 82.066 267.823, 83.881 278 C 85.607 287.681, 90.613 303.434, 92.447 304.956 C 95.420 307.424, 97.502 304.645, 98.896 296.344 C 100.852 284.703, 103.591 276.707, 109.772 264.588 C 114.892 254.548, 126.641 237.308, 127.665 238.332 C 127.906 238.572, 127.662 243.884, 127.124 250.135 C 123.838 288.296, 135.915 326.463, 160.384 355.247 C 171.231 368.006, 171.963 367.379, 172.420 344.921 C 172.955 318.622, 177.001 298.487, 186.672 274 C 189.170 267.675, 191.503 262.190, 191.857 261.811 C 192.211 261.432, 192.527 266.607, 192.559 273.311 C 192.626 286.984, 193.970 295.477, 198.076 308.154 C 203.418 324.651, 210.952 337.259, 226.965 356.500 C 244.347 377.385, 254.207 394.332, 259.395 412.236 C 262.253 422.096, 264.081 437.161, 263.279 444.242 C 262.705 449.308, 263.962 452, 266.902 452 C 269.197 452, 280.672 440.840, 286.439 433 C 300.500 413.882, 307.397 391.201, 306.806 366.023 C 306.638 358.858, 306.775 352.997, 307.111 352.998 C 307.448 352.999, 309.190 356.488, 310.984 360.750 C 314.606 369.358, 317.967 383.979, 317.987 391.215 C 318.003 396.972, 320.492 399.111, 323.828 396.235 C 328.814 391.939, 334 370.255, 334 353.702 C 334 339.900, 332.032 331.362, 325.625 317.365 C 320.552 306.283, 318.737 299.563, 319.622 295.138 C 320.694 289.778, 325.773 286, 331.905 286 C 336.240 286, 347.012 291.918, 352.298 297.203 C 354.936 299.841, 357.770 302, 358.594 302 C 359.419 302, 360.860 303.399, 361.797 305.110 C 365.454 311.786, 366.525 312.613, 369.874 311.352 C 372.766 310.262, 373.025 310.377, 374.927 313.602 C 377.075 317.241, 379.921 318.005, 382 315.500 C 383.733 313.412, 384.503 313.614, 385.818 316.500 C 387.493 320.176, 389.805 319.583, 395.063 314.129 C 404.829 303.997, 410.761 289.052, 409.667 277.336 C 409.216 272.510, 409.423 270.894, 410.619 269.902 C 412.796 268.094, 415.314 262.742, 418.424 253.309 C 419.910 248.804, 422.455 243.444, 424.081 241.398 C 431.288 232.330, 437.320 218.008, 436.254 212.500 C 435.505 208.631, 423.135 196.542, 400.315 177.379 C 390.864 169.441, 382.234 161.497, 381.139 159.724 C 380.043 157.951, 378.369 153.350, 377.417 149.500 C 375.306 140.953, 373.763 139.332, 354.424 125.329 C 335.788 111.835, 336.613 112.918, 339.038 105.125 C 342.942 92.582, 341.379 80.650, 333.804 65.169 C 329.658 56.697, 327.222 53.234, 320.261 45.919 C 315.592 41.014, 310.979 37, 310.009 37 C 306.361 37, 305.783 39.340, 307.443 47.379 C 308.299 51.524, 309 55.446, 309 56.095 C 309 56.743, 306.863 55.293, 304.250 52.872 C 287.617 37.458, 269.306 27.523, 247.143 21.888 C 234.352 18.635, 228.513 18.220, 227.638 20.500 M 258.181 38.741 C 265.223 45.983, 271.930 55.212, 276.829 64.401 C 280.254 70.823, 276.913 74.192, 271.154 70.126 C 266.517 66.850, 254.330 61.097, 246.375 58.426 C 234.302 54.373, 222.975 52.703, 207.500 52.692 C 184.531 52.677, 164.530 57.503, 144.126 67.984 C 128.438 76.042, 128.454 75.931, 143 75.970 C 159.295 76.013, 175.528 78.858, 189.673 84.151 C 194.565 85.981, 195.084 86.455, 194.807 88.843 C 194.506 91.449, 194.299 91.521, 184 92.605 C 165.853 94.516, 154.752 97.581, 141 104.478 C 122.245 113.884, 107.959 126.711, 95.310 145.500 C 88.605 155.461, 80.254 173.515, 78.507 181.827 L 77.807 185.154 84.654 179.627 C 97.767 169.040, 121.202 156.882, 129 156.618 C 131.966 156.518, 132.551 156.863, 132.836 158.878 C 133.079 160.595, 131.939 162.541, 128.735 165.878 C 123.628 171.197, 114.596 182.629, 110.807 188.568 C 99.352 206.526, 91.570 230.839, 90.344 252.500 C 89.746 263.063, 91.147 279.001, 92.925 281.879 C 93.404 282.654, 94.735 280.171, 96.442 275.313 C 102.415 258.323, 112.851 241.944, 126.978 227.387 C 132.238 221.967, 134.838 219.978, 136.375 220.197 C 139.076 220.582, 139.099 223.771, 136.498 237.500 C 134.074 250.293, 134.039 272.495, 136.422 286 C 139.750 304.866, 149.125 327.132, 159.789 341.500 L 163.500 346.500 164.287 339 C 166.124 321.507, 168.180 308.590, 170.671 298.899 L 173.327 288.566 171.005 277.033 C 167.881 261.525, 167.119 236.392, 169.377 223.364 C 174.916 191.403, 193.101 162.044, 213.750 151.725 C 216.088 150.557, 218 149.226, 218 148.767 C 218 148.309, 216.915 145.792, 215.588 143.174 C 211.306 134.724, 209.687 127.373, 210.274 119.050 C 211.042 108.164, 216.188 95.748, 221.231 92.611 C 222.561 91.783, 223.362 91.933, 224.686 93.257 C 226.318 94.889, 226.198 95.415, 222.455 103.098 C 218.642 110.924, 218.500 111.580, 218.500 121.358 C 218.500 132.239, 220.043 137.162, 226.344 146.390 C 227.805 148.529, 229 150.910, 229 151.681 C 229 152.453, 226.188 154.356, 222.750 155.910 C 213.923 159.902, 205.045 166.787, 198.514 174.704 C 191.366 183.370, 182.834 200.619, 179.326 213.500 C 176.750 222.958, 176.604 224.665, 176.629 245 C 176.644 257.131, 177.106 267.807, 177.690 269.500 L 178.724 272.500 180.028 269.500 C 187.662 251.925, 196.854 235.026, 200.362 232.114 C 202.090 230.681, 204.745 231.621, 205.476 233.926 C 205.780 234.883, 205.323 237.654, 204.461 240.083 C 202.200 246.453, 200.012 262.140, 200.010 272 C 200.004 293.402, 206.825 315.249, 219.365 334 C 221.020 336.475, 227.144 344.350, 232.973 351.500 C 246.628 368.250, 248.153 370.348, 254.622 381.296 C 263.587 396.468, 269.496 414.329, 270.816 430.246 L 271.500 438.500 277 431.841 C 284.496 422.765, 288.706 415.523, 292.758 404.737 C 297.988 390.813, 299.313 381.994, 298.731 365 C 298.357 354.107, 297.669 348.510, 295.963 342.500 C 294.715 338.100, 293.650 332.925, 293.597 331 C 293.513 327.979, 293.843 327.460, 296.003 327.207 C 298.799 326.881, 302.282 330.554, 310.030 342 C 314.838 349.104, 321.452 363.560, 322.535 369.334 C 324.100 377.675, 326.137 368.062, 326.086 352.574 C 326.049 341.264, 323.656 331.693, 317.646 318.814 C 309.858 302.129, 309.607 291.925, 316.781 283.744 C 317.628 282.778, 318.136 281.849, 317.911 281.679 C 317.685 281.509, 313.675 280.140, 309 278.636 C 284.755 270.841, 267.727 251.699, 262.625 226.502 L 261.411 220.505 257.081 226.880 C 247.884 240.424, 242.517 255.567, 240.684 273.147 C 239.510 284.403, 239.477 284.503, 236.796 284.812 C 234.377 285.091, 233.755 284.458, 230.903 278.812 C 216.078 249.463, 218.340 219.139, 237.489 190.517 C 244.233 180.438, 254.221 169.507, 262.097 163.586 C 267.163 159.778, 268.498 159.196, 270.145 160.078 C 273.599 161.926, 271.912 165.224, 264 172.090 C 249.265 184.877, 237.206 202.844, 231.844 220 C 228.739 229.935, 228.510 249.247, 231.387 258.500 L 233.253 264.500 235.568 255.874 C 238.539 244.806, 241.705 237.066, 246.905 228.162 C 251.531 220.243, 262.207 206.518, 264.396 205.678 C 267.411 204.521, 268.752 207.352, 269.384 216.206 C 270.615 233.460, 277.066 247.290, 289.062 258.397 C 296.663 265.434, 305.520 269.634, 323.926 274.927 C 340.236 279.618, 350.403 284.490, 355.382 290.002 C 358.049 292.953, 359.328 293.660, 361.318 293.279 C 363.479 292.866, 364.165 293.402, 365.948 296.897 C 368.317 301.542, 368.603 301.669, 371.266 299.259 C 373.108 297.592, 373.289 297.634, 375.542 300.254 C 376.836 301.758, 378.369 303.779, 378.950 304.744 C 379.917 306.352, 380.200 306.267, 382.291 303.750 C 385.322 300.101, 387.778 300.242, 389.426 304.161 L 390.755 307.322 393.989 302.911 C 399.665 295.172, 401.266 290.406, 401.771 279.750 C 402.087 273.070, 401.888 270, 401.137 270 C 400.535 270, 396.574 271.164, 392.335 272.587 C 386.077 274.688, 381.532 275.350, 368.164 276.107 C 350.961 277.082, 348.554 276.886, 347.615 274.439 C 346.830 272.394, 350.472 269, 353.452 269 C 355.734 269, 355.574 268.669, 351.160 264.250 C 336.982 250.058, 338.359 229.985, 354.533 215.077 C 359.178 210.795, 360.822 210.222, 362.800 212.200 C 364.878 214.278, 364.147 216.059, 358.838 221.860 C 347.405 234.352, 346.134 247.191, 355.300 257.604 C 360.366 263.359, 369.574 267.998, 375.932 267.999 C 382.223 268, 394.574 264.450, 401.551 260.636 C 409.283 256.408, 412.312 251.174, 411.756 243 C 411.225 235.194, 409.370 232.123, 402.911 228.358 C 392.743 222.429, 386.484 213.313, 390.544 210.344 C 393.219 208.388, 393.467 208.520, 397.381 213.967 C 401.819 220.145, 407.689 223.399, 414.500 223.457 C 419.168 223.497, 419.521 223.678, 419.810 226.184 C 419.981 227.660, 419.420 230.222, 418.564 231.877 C 416.748 235.389, 418.286 237.314, 420.539 234.350 C 422.824 231.345, 425.291 224.202, 424.636 222.493 C 423.528 219.607, 417.439 217.805, 412.914 219.023 C 408.239 220.282, 405.407 219.629, 403.980 216.962 C 403.108 215.333, 403.533 214.769, 406.941 213.030 C 411.646 210.630, 414.608 210.520, 421.953 212.475 C 424.953 213.273, 427.559 213.774, 427.745 213.589 C 428.616 212.717, 421.333 205.711, 405.634 192.321 C 380.887 171.215, 374.374 164.615, 371.980 158.218 C 370.891 155.307, 370 152.103, 370 151.097 C 370 147.911, 366.124 144.146, 351.623 133.248 C 343.855 127.411, 335.166 120.749, 332.314 118.444 C 325.851 113.222, 314.261 109.778, 302.862 109.692 C 294.942 109.632, 295.219 109.541, 281.500 116.774 C 279.300 117.934, 275.400 119.607, 272.833 120.492 C 268.536 121.974, 258.343 129.677, 259.348 130.682 C 259.588 130.921, 261.520 130.381, 263.642 129.482 C 268.730 127.326, 280.955 126.370, 283.821 127.904 C 286.221 129.189, 286.701 132.201, 284.750 133.744 C 284.063 134.287, 280.092 134.976, 275.928 135.275 C 268.566 135.804, 260.773 138.648, 252.907 143.677 C 249.733 145.706, 247 144.840, 247 141.806 C 247 140.565, 248.230 136.388, 249.732 132.525 C 253.105 123.853, 259.709 116.896, 267.038 114.293 C 269.767 113.324, 272 112.135, 272 111.652 C 272 111.169, 268.714 107.489, 264.699 103.473 C 258.524 97.298, 256.495 95.909, 251.550 94.471 C 243.376 92.095, 239.926 93.736, 236.260 101.743 C 230.988 113.259, 232.172 127.196, 239.576 140.784 C 241.459 144.241, 243 148.123, 243 149.412 C 243 152.289, 240.826 154.254, 238.590 153.396 C 236.063 152.426, 228.164 135.285, 226.386 126.913 C 221.497 103.887, 233.955 82.734, 250.547 85.888 C 259.212 87.535, 268.847 94.373, 276.637 104.404 L 279.669 108.309 285.104 105.650 C 293.106 101.735, 300.660 100.398, 307.957 101.604 C 311.281 102.154, 314 102.292, 314 101.912 C 314 101.531, 311.975 98.469, 309.500 95.107 C 304.638 88.503, 304.176 86.929, 306.524 84.980 C 308.957 82.961, 311.134 84.710, 319.803 95.643 C 324.226 101.222, 328.331 106.086, 328.924 106.453 C 330.559 107.463, 332.184 102.353, 332.726 94.500 C 333.511 83.115, 329.347 70.714, 320.688 58.648 L 317.207 53.797 316.853 62.936 C 316.593 69.681, 316.107 72.322, 315 73.022 C 312.679 74.488, 312.016 74.236, 309.160 70.803 C 302.613 62.935, 293.984 54.406, 288 49.889 C 280.674 44.359, 264.718 35.827, 256.259 32.917 L 250.636 30.983 258.181 38.741 M 417.738 71.982 C 415.295 80.318, 411.941 83.730, 403.503 86.464 L 396.597 88.702 400.502 89.434 C 405.373 90.348, 410.898 93.122, 413.435 95.927 C 414.499 97.104, 416.339 100.946, 417.524 104.466 L 419.677 110.865 421.327 105.683 C 424.647 95.256, 427.747 92.303, 438.180 89.633 L 443.400 88.298 439.450 87.570 C 429.014 85.647, 424.077 81.292, 421.123 71.401 L 419.500 65.969 417.738 71.982 M 349.912 138.870 C 347.907 140.493, 347.828 140.950, 348.958 144.373 C 350.543 149.174, 349.608 153.483, 347.208 152.439 C 343.158 150.676, 338.295 150.946, 327.972 153.507 C 321.922 155.008, 316.724 156.637, 316.422 157.127 C 315.641 158.390, 316.932 162, 318.164 162 C 318.730 162, 321.214 163.779, 323.684 165.953 C 329.422 171.004, 335.627 174, 340.349 174 C 344.883 174, 352.891 177.872, 359.179 183.106 C 364.119 187.217, 365.844 187.756, 367.800 185.800 C 369.938 183.662, 369.110 182.102, 362.541 175.889 C 358.395 171.968, 355.488 168.226, 354.425 165.444 C 352.834 161.277, 352.852 160.937, 354.885 156.738 C 356.215 153.990, 357 150.420, 357 147.119 C 357 138.827, 354.113 135.468, 349.912 138.870 M 335 159.377 L 328.500 160.510 332 163.148 C 333.925 164.599, 337.300 166.008, 339.500 166.280 C 341.700 166.551, 344.484 167.094, 345.687 167.487 C 347.799 168.176, 347.836 168.068, 346.755 164.350 C 345.445 159.840, 344.194 157.953, 342.628 158.122 C 342.007 158.189, 338.575 158.754, 335 159.377" stroke="none" fill="none" fill-rule="evenodd"/></svg>